# xmcd CD database file
#
# Track frame offsets:
#	150
#	23345
#	43592
#	67000
#
# Disc length: 1199 seconds
#
# Revision: 0
# Processed by: cddbd v1.5.1PL0 Copyright (c) Steve Scherf et al.
# Submitted via: CDex 1.51
#
DISCID=2904ad04
DTITLE=Stardust Revue - 南風吹く丘で
DYEAR=2004
DGENRE=JPop
TTITLE0=南風吹く丘で
TTITLE1=My pride your pride -Live version-
TTITLE2=Step by step -Live version-
TTITLE3=南風吹く丘で (Instrumental)
EXTD=YEAR: 2004
EXTT0=
EXTT1=
EXTT2=
EXTT3=
PLAYORDER=
